<svg id="Layer_5" data-name="Layer 5" xmlns="http://www.w3.org/2000/svg" xmlns:xlink="http://www.w3.org/1999/xlink" viewBox="0 0 1153.02 1172.49"><defs><style>.cls-1{fill:none;}.cls-2{isolation:isolate;}.cls-3{clip-path:url(#clip-path);}.cls-4{fill:#fff;}.cls-5{clip-path:url(#clip-path-2);}.cls-6{clip-path:url(#clip-path-3);}</style><clipPath id="clip-path" transform="translate(-191.49 -182.77)"><polygon class="cls-1" points="240.56 389.46 757.95 182.77 1295.44 380.76 778.05 587.44 240.56 389.46"/></clipPath><clipPath id="clip-path-2" transform="translate(-191.49 -182.77)"><polygon class="cls-1" points="818.44 1352.61 819.29 648.51 1344.51 439.37 1343.66 1143.47 818.44 1352.61"/></clipPath><clipPath id="clip-path-3" transform="translate(-191.49 -182.77)"><polygon class="cls-1" points="191.49 1156.64 193 449.81 737.77 648.44 736.25 1355.26 191.49 1156.64"/></clipPath></defs><g class="cls-2"><g class="cls-3"><polyline class="cls-4" points="1103.95 197.99 911.04 126.93 762.22 128.16 759.38 71.06 736.19 62.52 566.47 0 566.46 0 49.07 206.69 218.8 269.21 527.41 145.93 531.09 220.08 726.43 218.47 416.82 342.15 586.56 404.68 940.57 263.26 1103.95 197.99"/></g></g><g class="cls-2"><g class="cls-5"><polyline class="cls-4" points="1153.02 256.6 964.52 331.66 890.3 460.51 816.32 390.68 793.67 399.69 627.82 465.74 627.81 465.74 626.95 1169.84 792.82 1103.79 793.32 683.82 889.41 774.53 986.83 605.41 986.32 1026.74 1152.17 960.7 1152.75 478.94 1153.02 256.6"/></g></g><g class="cls-2"><g class="cls-6"><path class="cls-4" d="M737.77,648.44,542.24,577.15l-77.06,71.7L388.53,521.1,193,449.81l-1.51,706.83,172,62.72.9-421.6L464,963.69l101.16-94.12-.91,423,172,62.72,1.52-706.82" transform="translate(-191.49 -182.77)"/></g></g></svg>